<svg data-v-423bf9ae="" xmlns="http://www.w3.org/2000/svg" viewBox="0 0 454 107" class="iconLeft"><!----><!----><!----><g data-v-423bf9ae="" id="9ae52452-b118-47ca-b60e-edbe15fa2bfa" fill="white" transform="matrix(4.860001019668793,0,0,4.860001019668793,99.00018394961583,2.5247125358272555)"><path d="M5.45 9.44L5.45 9.44L5.45 9.44Q5.53 9.27 5.56 8.82L5.56 8.82L5.56 8.82Q5.59 8.37 5.61 8.20L5.61 8.20L5.61 8.20Q5.61 6.57 4.72 6.06L4.72 6.06L4.72 6.06Q4.35 5.85 4.02 5.95L4.02 5.95L4.02 5.95Q3.86 5.95 3.54 6.15L3.54 6.15L3.54 6.15Q3.53 6.34 3.53 6.80L3.53 6.80L3.46 7.32L3.33 8.61L3.33 8.61Q3.33 8.64 3.30 9.02L3.30 9.02L3.30 9.02Q3.09 11.21 3.09 12.31L3.09 12.31L3.09 12.31Q3.35 12.25 3.53 12.07L3.53 12.07L3.53 12.07Q4.02 11.66 4.07 11.63L4.07 11.63L4.27 11.45L4.27 11.45Q4.34 11.44 4.63 11.12L4.63 11.12L4.63 11.10L4.90 10.75L5.18 10.18L5.18 10.18Q5.29 10.02 5.45 9.44ZM1.40 11.55L1.40 11.55L1.40 11.55Q1.37 11.49 1.37 11.35L1.37 11.35L1.37 11.35Q1.37 11.20 1.41 11.00L1.41 11.00L1.41 11.00Q1.46 10.81 1.46 10.54L1.46 10.54L1.46 10.54Q1.46 10.28 1.54 9.86L1.54 9.86L1.54 9.86Q1.48 9.77 1.55 9.23L1.55 9.23L1.55 9.23Q1.62 9.10 1.61 8.89L1.61 8.89L1.61 8.89Q1.60 8.68 1.60 8.55L1.60 8.55L1.60 8.55Q1.60 7.95 1.62 7.87L1.62 7.87L1.62 7.87Q1.65 7.78 1.64 7.53L1.64 7.53L1.64 7.53Q1.72 7.45 1.78 6.87L1.78 6.87L1.78 6.87Q1.30 6.89 1.06 6.61L1.06 6.61L1.06 6.61Q0.83 6.34 0.67 5.84L0.67 5.84L0.67 5.84Q0.69 5.75 0.71 5.68L0.71 5.68L0.71 5.68Q0.73 5.60 0.74 5.54L0.74 5.54L0.74 5.54Q0.76 5.49 0.80 5.42L0.80 5.42L0.80 5.42Q0.84 5.36 0.86 5.33L0.86 5.33L0.86 5.33Q0.88 5.29 0.95 5.23L0.95 5.23L0.95 5.23Q1.02 5.17 1.05 5.14L1.05 5.14L1.05 5.14Q1.08 5.12 1.18 5.06L1.18 5.06L1.18 5.06Q1.27 5.00 1.30 4.98L1.30 4.98L1.30 4.98Q1.33 4.96 1.45 4.88L1.45 4.88L1.45 4.88Q1.57 4.80 1.61 4.77L1.61 4.77L1.61 4.77Q1.65 4.70 1.83 4.67L1.83 4.67L1.83 4.67Q2.02 4.63 2.38 4.48L2.38 4.48L2.38 4.48Q2.44 4.42 3.04 4.29L3.04 4.29L3.04 4.29Q3.64 4.16 4.21 4.40L4.21 4.40L4.21 4.40Q4.54 4.40 4.68 4.45L4.68 4.45L4.68 4.45Q4.82 4.58 5.05 4.63L5.05 4.63L5.77 5.01L5.77 5.01Q5.92 5.17 6.40 5.74L6.40 5.74L6.40 5.74Q6.92 6.66 7.06 7.62L7.06 7.62L7.06 7.62Q7.07 7.88 7.07 8.55L7.07 8.55L7.07 8.55Q6.94 9.83 6.61 10.40L6.61 10.40L6.61 10.40Q6.58 10.57 6.45 10.82L6.45 10.82L6.45 10.82Q6.45 10.85 6.27 11.16L6.27 11.16L6.27 11.16Q6.08 11.48 5.84 11.78L5.84 11.78L5.84 11.78Q5.60 12.08 5.53 12.18L5.53 12.18L5.53 12.18Q4.96 12.71 4.89 12.77L4.89 12.77L4.89 12.77Q4.56 13.01 4.52 13.02L4.52 13.02L4.52 13.02Q3.46 13.55 3.40 13.59L3.40 13.59L3.40 13.59Q3.33 13.64 3.05 13.69L3.05 13.69L3.05 13.69Q2.65 13.73 2.55 13.65L2.55 13.65L2.55 13.65Q2.32 13.55 2.14 13.36L2.14 13.36L2.14 13.36Q2.09 13.34 1.92 13.13L1.92 13.13L1.92 13.13Q1.69 12.96 1.67 12.94L1.67 12.94L1.67 12.94Q1.48 12.67 1.40 11.93L1.40 11.93L1.40 11.93Q1.39 11.87 1.40 11.55ZM10.67 9.31L10.67 9.31L10.67 9.31Q10.57 8.75 10.12 8.79L10.12 8.79L10.12 8.79Q9.87 8.81 9.69 9.13L9.69 9.13L9.69 9.13Q9.44 9.62 9.47 10.39L9.47 10.39L9.47 10.39Q9.51 11.17 9.58 11.51L9.58 11.51L9.58 11.51Q9.66 11.86 9.86 12.11L9.86 12.11L9.86 12.11Q9.97 12.31 10.19 12.29L10.19 12.29L10.19 12.29Q10.58 12.29 10.77 11.63L10.77 11.63L10.88 11.30L10.88 11.30Q10.95 11.23 10.91 11.16L10.91 11.16L10.91 11.16Q11.05 10.81 11.06 10.33L11.06 10.33L11.06 10.33Q10.92 10.23 10.89 10.15L10.89 10.15L10.89 10.15Q10.81 9.91 10.81 9.83L10.81 9.83L10.81 9.83Q10.71 9.76 10.70 9.56L10.70 9.56L10.70 9.56Q10.68 9.37 10.67 9.31ZM8.11 10.63L8.11 10.63L8.16 9.91L8.16 9.91Q8.26 8.95 8.75 8.26L8.75 8.26L8.75 8.26Q9.23 7.69 10.09 7.67L10.09 7.67L10.18 7.67L10.18 7.67Q10.99 7.67 11.35 8.02L11.35 8.02L11.35 8.02Q11.75 8.33 11.94 8.69L11.94 8.69L11.94 8.69Q12.12 9.06 12.18 9.23L12.18 9.23L12.18 9.23Q12.24 9.39 12.25 9.72L12.25 9.72L12.25 9.72Q12.28 10.32 12.01 10.40L12.01 10.40L12.01 10.40Q12.21 11.73 11.77 12.52L11.77 12.52L11.77 12.52Q11.63 12.84 11.37 13.22L11.37 13.22L11.37 13.22Q11.17 13.47 10.67 13.50L10.67 13.50L10.67 13.50Q10.16 13.50 9.79 13.44L9.79 13.44L9.79 13.44Q9.42 13.38 8.97 13.08L8.97 13.08L8.97 13.08Q8.53 12.78 8.34 12.10L8.34 12.10L8.34 12.10Q8.15 11.44 8.11 10.63ZM16.76 12.92L16.76 12.92L16.67 12.68L16.52 11.75L16.52 11.75Q16.45 11.48 16.45 11.27L16.45 11.27L16.51 10.65L16.51 10.65Q16.51 10.50 16.52 10.49L16.52 10.49L16.52 10.49Q16.35 10.49 16.02 10.89L16.02 10.89L16.02 10.89Q15.99 10.93 15.93 11.03L15.93 11.03L15.93 11.03Q15.34 11.97 15.23 13.29L15.23 13.29L15.23 13.29Q15.12 13.52 14.94 13.52L14.94 13.52L14.94 13.52Q14.56 13.44 14.52 13.44L14.52 13.44L14.42 13.45L14.24 13.45L14.24 13.45Q13.92 13.43 13.82 13.20L13.82 13.20L13.82 13.20Q13.76 13.13 13.76 12.84L13.76 12.84L13.76 12.64L13.72 11.87L13.72 10.72L13.72 10.72Q13.72 10.53 13.69 10.23L13.69 10.23L13.69 10.23Q13.66 9.91 13.68 9.22L13.68 9.22L13.68 9.22Q13.69 8.53 13.66 8.48L13.66 8.48L13.66 8.48Q13.64 8.43 13.64 8.34L13.64 8.34L13.64 8.34Q13.64 8.26 13.68 8.18L13.68 8.18L13.68 8.18Q13.72 8.09 14.06 7.99L14.06 7.99L14.06 7.99Q14.24 7.88 14.36 7.88L14.36 7.88L14.36 7.88Q14.56 7.92 14.87 8.05L14.87 8.05L14.87 8.05Q15.08 8.09 15.08 8.46L15.08 8.46L15.08 8.46Q15.11 9.06 15.09 9.32L15.09 9.32L15.09 9.32Q15.06 9.59 15.09 10.40L15.09 10.40L15.09 10.40Q16.13 8.41 16.94 8.01L16.94 8.01L16.94 8.01Q17.01 7.94 17.15 7.94L17.15 7.94L17.15 7.94Q17.29 7.94 17.47 8.08L17.47 8.08L17.47 8.08Q17.65 8.22 17.72 8.26L17.72 8.26L17.72 8.26Q17.79 8.30 17.89 8.40L17.89 8.40L17.89 8.40Q17.98 8.50 18.03 8.53L18.03 8.53L18.03 8.53Q18.20 8.81 18.10 9.84L18.10 9.84L18.10 9.84Q18.09 10.00 18.07 10.11L18.07 10.11L18.07 10.11Q18.06 10.23 18.06 10.63L18.06 10.63L18.06 10.63Q18.06 11.02 18.07 11.17L18.07 11.17L18.07 11.17Q18.12 11.66 18.12 11.75L18.12 11.75L18.19 12.28L18.19 12.28Q18.33 12.60 18.33 12.77L18.33 12.77L18.33 12.77Q18.34 12.95 18.58 13.33L18.58 13.33L18.58 13.33Q18.68 13.54 18.49 13.66L18.49 13.66L18.49 13.66Q18.21 13.80 18.19 13.78L18.19 13.78L18.19 13.78Q18.17 13.76 18.03 13.81L18.03 13.81L18.03 13.81Q17.89 13.86 17.53 13.83L17.53 13.83L17.53 13.83Q17.35 13.79 17.16 13.61L17.16 13.61L16.95 13.40L16.95 13.40Q16.84 13.23 16.80 13.03L16.80 13.03L16.80 13.03Q16.73 12.96 16.76 12.92ZM22.51 8.96L22.51 8.96L22.51 8.96Q22.57 8.75 22.50 8.43L22.50 8.43L22.50 8.43Q22.40 8.34 22.23 8.34L22.23 8.34L22.23 8.34Q22.02 8.34 21.85 8.74L21.85 8.74L21.85 8.74Q21.63 9.07 21.52 9.48L21.52 9.48L21.50 9.48L21.50 9.48Q21.35 10.07 21.35 10.11L21.35 10.11L21.35 10.11Q21.57 10.16 21.71 10.16L21.71 10.16L21.71 10.16Q21.85 10.15 22.04 10.01L22.04 10.01L22.04 10.01Q22.36 9.70 22.51 8.96ZM22.47 10.98L22.47 10.98L21.95 11.02L21.95 11.02Q21.52 11.02 21.27 10.93L21.27 10.93L21.31 11.20L21.31 11.20Q21.35 12.36 21.95 12.73L21.95 12.73L21.95 12.73Q22.12 12.80 22.23 12.80L22.23 12.80L22.23 12.80Q22.34 12.80 22.53 12.68L22.53 12.68L22.53 12.68Q22.58 12.63 22.62 12.53L22.62 12.53L22.62 12.53Q22.64 12.40 22.76 12.42L22.76 12.42L22.76 12.42Q23.34 11.69 23.63 11.84L23.63 11.84L23.63 11.84Q23.93 12.04 23.93 12.15L23.93 12.15L23.93 12.15Q23.93 12.21 23.86 12.28L23.86 12.28L23.86 12.36L23.86 12.36Q23.86 12.50 23.68 12.87L23.68 12.87L23.68 12.87Q23.51 13.23 23.31 13.48L23.31 13.48L23.31 13.48Q23.21 13.69 23.06 13.78L23.06 13.78L23.06 13.78Q22.61 14.06 22.11 14L22.11 14L22.11 14Q21.99 13.99 21.95 13.94L21.95 13.94L21.95 13.94Q21.84 13.92 21.78 13.93L21.78 13.93L21.67 13.92L21.67 13.92Q21.55 13.92 21.46 13.86L21.46 13.86L21.46 13.86Q21.32 13.78 21.27 13.78L21.27 13.78L21.27 13.78Q20.90 13.64 20.83 13.57L20.83 13.57L20.83 13.57Q20.75 13.50 20.69 13.47L20.69 13.47L20.69 13.47Q20.64 13.44 20.43 13.17L20.43 13.17L20.43 13.17Q20.24 13.02 20.22 12.98L20.22 12.98L20.22 12.98Q20.13 12.85 20.07 12.80L20.07 12.80L20.07 12.80Q20.01 12.74 19.99 12.54L19.99 12.54L19.99 12.54Q19.94 12.47 19.94 12.36L19.94 12.36L19.88 12.25L19.88 12.25Q19.88 12.15 19.80 12.10L19.80 12.10L19.80 12.10Q19.71 12.01 19.71 11.89L19.71 11.89L19.71 11.77L19.71 11.77Q19.66 11.75 19.68 11.61L19.68 11.61L19.68 11.24L19.67 11.12L19.67 11.02L19.67 11.02Q19.66 10.96 19.70 10.78L19.70 10.78L19.68 10.65L19.68 10.65Q19.70 10.64 19.73 10.43L19.73 10.43L19.73 10.43Q19.78 10.14 19.85 10.07L19.85 10.07L19.85 9.94L19.85 9.94Q19.87 9.90 19.87 9.83L19.87 9.83L19.87 9.83Q19.87 9.76 19.90 9.67L19.90 9.67L19.90 9.67Q19.94 9.59 20.12 9.04L20.12 9.04L20.34 8.55L20.34 8.55Q20.44 8.34 20.65 8.09L20.65 8.09L20.65 8.09Q20.66 8.02 20.76 7.84L20.76 7.84L20.94 7.67L20.94 7.67Q21.03 7.55 21.20 7.49L21.20 7.49L21.20 7.49Q21.39 7.39 21.49 7.39L21.49 7.39L21.88 7.34L21.88 7.34Q21.95 7.35 21.98 7.35L21.98 7.35L22.16 7.35L22.16 7.35Q22.47 7.38 22.67 7.48L22.67 7.48L22.67 7.48Q23.09 7.60 23.28 7.80L23.28 7.80L23.28 7.80Q23.72 8.29 23.72 8.74L23.72 8.74L23.72 8.74Q23.72 9.18 23.58 9.51L23.58 9.51L23.58 9.51Q23.23 10.30 23.07 10.51L23.07 10.51L23.07 10.51Q22.82 10.98 22.47 10.98ZM25.97 8.50L25.97 8.50L25.98 8.37L25.98 8.37Q25.69 8.34 25.57 8.32L25.57 8.32L25.57 8.32Q25.45 8.30 25.19 8.27L25.19 8.27L25.19 8.27Q24.92 8.25 24.77 8.19L24.77 8.19L24.77 8.19Q24.47 8.09 24.43 7.68L24.43 7.68L24.43 7.68Q24.39 7.27 24.70 7.17L24.70 7.17L24.70 7.17Q24.98 7.10 25.09 7.10L25.09 7.10L25.09 7.10Q25.20 7.10 25.51 7.07L25.51 7.07L25.51 7.07Q25.66 6.99 25.93 6.97L25.93 6.97L26.14 6.92L26.14 6.92Q26.14 6.93 26.25 6.89L26.25 6.89L26.32 6.59L26.32 6.59Q26.32 6.37 26.45 6.15L26.45 6.15L26.45 6.15Q26.45 6.05 26.63 5.60L26.63 5.60L26.63 5.60Q26.63 5.54 26.88 4.79L26.88 4.79L26.88 4.79Q26.94 4.72 27.30 4.47L27.30 4.47L27.30 4.47Q27.52 4.35 27.93 4.62L27.93 4.62L27.93 4.62Q28.15 4.72 28.24 4.89L28.24 4.89L28.24 4.89Q28.15 4.97 28.15 5.28L28.15 5.28L28.15 5.28Q28.14 5.38 27.96 6.31L27.96 6.31L27.96 6.71L27.96 6.71Q28.07 6.72 28.33 6.78L28.33 6.78L28.33 6.78Q28.59 6.83 28.95 6.90L28.95 6.90L28.95 6.90Q29.65 7.04 29.83 7.46L29.83 7.46L29.83 7.46Q29.90 7.77 29.81 7.90L29.81 7.90L29.81 7.90Q29.71 8.02 29.33 8.08L29.33 8.08L29.33 8.08Q29.02 8.09 28.53 8.09L28.53 8.09L28.53 8.09Q28.03 8.09 27.79 8.16L27.79 8.16L27.79 8.16Q27.76 8.41 27.76 8.55L27.76 8.55L27.75 8.76L27.75 8.76Q27.75 8.86 27.62 9.80L27.62 9.80L27.62 9.80Q27.54 9.93 27.48 11.10L27.48 11.10L27.48 12.12L27.48 12.12Q27.48 12.38 27.52 12.60L27.52 12.60L27.52 12.60Q27.54 12.91 27.59 13.03L27.59 13.03L27.59 13.03Q27.59 13.16 27.66 13.57L27.66 13.57L27.66 13.57Q27.50 13.97 27.11 13.97L27.11 13.97L27.11 13.97Q26.73 13.97 26.43 13.69L26.43 13.69L26.28 13.47L26.28 13.47Q26.24 13.36 26.22 13.31L26.22 13.31L26.22 13.31Q26.19 13.27 26.18 13.22L26.18 13.22L26.18 13.22Q26.08 12.94 26.03 12.87L26.03 12.87L26.03 12.87Q25.94 12.75 25.94 12.70L25.94 12.70L25.94 12.70Q25.94 12.64 25.94 12.56L25.94 12.56L25.94 12.56Q25.91 12.32 25.87 12.15L25.87 12.15L25.87 12.15Q25.80 12.08 25.80 11.68L25.80 11.68L25.80 11.68Q25.83 10.93 25.80 10.82L25.80 10.82L25.80 10.82Q25.84 10.78 25.82 10.29L25.82 10.29L25.86 9.98L25.86 9.98Q25.86 9.93 25.91 9.56L25.91 9.56L25.91 9.56Q25.89 9.51 25.90 9.26L25.90 9.26L25.90 9.26Q25.91 9.02 25.94 8.92L25.94 8.92L25.94 8.92Q25.97 8.75 25.97 8.50ZM30.35 8.01L30.35 8.01L30.35 8.01Q30.73 7.55 31.39 7.52L31.39 7.52L31.39 7.52Q32.47 7.48 32.99 8.05L32.99 8.05L32.99 8.05Q33.52 8.62 33.55 9.18L33.55 9.18L33.55 9.18Q33.59 9.74 33.26 9.79L33.26 9.79L33.26 9.79Q32.80 9.80 32.66 9.66L32.66 9.66L32.66 9.66Q32.54 9.67 32.34 9.48L32.34 9.48L32.34 9.48Q32.26 9.44 32.12 9.16L32.12 9.16L31.96 8.81L31.96 8.81Q31.85 8.55 31.68 8.53L31.68 8.53L31.68 8.53Q31.47 8.61 31.47 8.95L31.47 8.95L31.47 8.95Q31.53 9.60 32.10 10.21L32.10 10.21L32.10 10.21Q32.10 10.21 32.12 10.24L32.12 10.24L32.12 10.24Q32.14 10.28 32.33 10.47L32.33 10.47L32.33 10.47Q33.43 11.69 33.47 12.43L33.47 12.43L33.47 12.43Q33.47 12.91 33.28 13.06L33.28 13.06L33.28 13.06Q32.68 13.78 31.71 13.80L31.71 13.80L31.71 13.80Q30.74 13.83 30.11 13.20L30.11 13.20L30.11 13.20Q29.95 13.03 29.95 12.88L29.95 12.88L29.95 12.88Q29.86 12.61 29.89 12.53L29.89 12.53L29.89 12.53Q29.85 12.14 29.89 11.94L29.89 11.94L29.89 11.94Q29.97 11.49 30.55 11.48L30.55 11.48L30.55 11.48Q30.76 11.48 30.81 11.73L30.81 11.73L30.81 11.73Q31.00 12.45 31.16 12.67L31.16 12.67L31.16 12.67Q31.32 12.89 31.68 12.88L31.68 12.88L31.68 12.88Q32.14 12.85 32.12 12.36L32.12 12.36L32.12 12.36Q32.10 11.87 31.65 11.45L31.65 11.45L31.65 11.45Q31.51 11.28 31.38 11.19L31.38 11.19L31.38 11.19Q31.25 11.10 31.21 11.06L31.21 11.06L31.21 11.06Q31.19 11.02 31.14 10.98L31.14 10.98L31.14 10.98Q30.86 10.75 30.43 10.23L30.43 10.23L30.43 10.23Q30.00 9.72 29.97 9.27L29.97 9.27L29.97 9.27Q29.92 8.47 30.35 8.01ZM42.43 9.44L42.43 9.44L42.43 9.44Q42.52 9.27 42.55 8.82L42.55 8.82L42.55 8.82Q42.57 8.37 42.60 8.20L42.60 8.20L42.60 8.20Q42.60 6.57 41.71 6.06L41.71 6.06L41.71 6.06Q41.34 5.85 41.01 5.95L41.01 5.95L41.01 5.95Q40.85 5.95 40.53 6.15L40.53 6.15L40.53 6.15Q40.52 6.34 40.52 6.80L40.52 6.80L40.45 7.32L40.32 8.61L40.32 8.61Q40.32 8.64 40.29 9.02L40.29 9.02L40.29 9.02Q40.08 11.21 40.08 12.31L40.08 12.31L40.08 12.31Q40.33 12.25 40.52 12.07L40.52 12.07L40.52 12.07Q41.01 11.66 41.06 11.63L41.06 11.63L41.26 11.45L41.26 11.45Q41.33 11.44 41.62 11.12L41.62 11.12L41.62 11.10L41.89 10.75L42.17 10.18L42.17 10.18Q42.28 10.02 42.43 9.44ZM38.39 11.55L38.39 11.55L38.39 11.55Q38.36 11.49 38.36 11.35L38.36 11.35L38.36 11.35Q38.36 11.20 38.40 11.00L38.40 11.00L38.40 11.00Q38.44 10.81 38.44 10.54L38.44 10.54L38.44 10.54Q38.44 10.28 38.53 9.86L38.53 9.86L38.53 9.86Q38.47 9.77 38.54 9.23L38.54 9.23L38.54 9.23Q38.61 9.10 38.60 8.89L38.60 8.89L38.60 8.89Q38.58 8.68 38.58 8.55L38.58 8.55L38.58 8.55Q38.58 7.95 38.61 7.87L38.61 7.87L38.61 7.87Q38.64 7.78 38.63 7.53L38.63 7.53L38.63 7.53Q38.71 7.45 38.77 6.87L38.77 6.87L38.77 6.87Q38.29 6.89 38.05 6.61L38.05 6.61L38.05 6.61Q37.81 6.34 37.66 5.84L37.66 5.84L37.66 5.84Q37.67 5.75 37.70 5.68L37.70 5.68L37.70 5.68Q37.72 5.60 37.73 5.54L37.73 5.54L37.73 5.54Q37.74 5.49 37.79 5.42L37.79 5.42L37.79 5.42Q37.83 5.36 37.85 5.33L37.85 5.33L37.85 5.33Q37.87 5.29 37.94 5.23L37.94 5.23L37.94 5.23Q38.01 5.17 38.04 5.14L38.04 5.14L38.04 5.14Q38.07 5.12 38.16 5.06L38.16 5.06L38.16 5.06Q38.26 5.00 38.29 4.98L38.29 4.98L38.29 4.98Q38.32 4.96 38.44 4.88L38.44 4.88L38.44 4.88Q38.56 4.80 38.60 4.77L38.60 4.77L38.60 4.77Q38.64 4.70 38.82 4.67L38.82 4.67L38.82 4.67Q39.00 4.63 39.37 4.48L39.37 4.48L39.37 4.48Q39.42 4.42 40.03 4.29L40.03 4.29L40.03 4.29Q40.63 4.16 41.20 4.40L41.20 4.40L41.20 4.40Q41.52 4.40 41.66 4.45L41.66 4.45L41.66 4.45Q41.80 4.58 42.04 4.63L42.04 4.63L42.76 5.01L42.76 5.01Q42.91 5.17 43.39 5.74L43.39 5.74L43.39 5.74Q43.90 6.66 44.04 7.62L44.04 7.62L44.04 7.62Q44.06 7.88 44.06 8.55L44.06 8.55L44.06 8.55Q43.93 9.83 43.60 10.40L43.60 10.40L43.60 10.40Q43.57 10.57 43.44 10.82L43.44 10.82L43.44 10.82Q43.44 10.85 43.25 11.16L43.25 11.16L43.25 11.16Q43.06 11.48 42.83 11.78L42.83 11.78L42.83 11.78Q42.59 12.08 42.52 12.18L42.52 12.18L42.52 12.18Q41.94 12.71 41.87 12.77L41.87 12.77L41.87 12.77Q41.55 13.01 41.51 13.02L41.51 13.02L41.51 13.02Q40.45 13.55 40.38 13.59L40.38 13.59L40.38 13.59Q40.32 13.64 40.04 13.69L40.04 13.69L40.04 13.69Q39.63 13.73 39.54 13.65L39.54 13.65L39.54 13.65Q39.31 13.55 39.13 13.36L39.13 13.36L39.13 13.36Q39.07 13.34 38.91 13.13L38.91 13.13L38.91 13.13Q38.68 12.96 38.65 12.94L38.65 12.94L38.65 12.94Q38.47 12.67 38.39 11.93L38.39 11.93L38.39 11.93Q38.37 11.87 38.39 11.55ZM45.79 7.66L45.79 7.66L45.82 7.66L45.82 7.66Q46.00 7.60 46.41 7.70L46.41 7.70L46.41 7.70Q46.55 7.74 46.58 8.50L46.58 8.50L46.58 8.50Q46.63 9.07 46.63 9.29L46.63 9.29L46.63 9.29Q46.63 9.51 46.65 9.55L46.65 9.55L46.65 10.49L46.72 10.50L46.72 10.50Q46.72 10.49 46.75 10.33L46.75 10.33L46.75 10.33Q46.82 9.94 46.90 9.73L46.90 9.73L46.90 9.73Q46.96 9.67 46.96 9.59L46.96 9.59L46.96 9.59Q46.97 9.51 47.04 9.41L47.04 9.41L47.04 9.41Q47.12 9.02 47.46 8.39L47.46 8.39L47.46 8.39Q47.57 8.12 47.68 7.99L47.68 7.99L47.68 7.99Q47.78 7.85 48.00 7.90L48.00 7.90L48.00 7.90Q48.22 7.94 48.36 8.05L48.36 8.05L48.36 8.05Q48.47 8.06 48.62 8.09L48.62 8.09L49.03 8.18L49.03 8.18Q49.08 8.19 49.18 8.27L49.18 8.27L49.18 8.27Q49.28 8.34 49.27 8.46L49.27 8.46L49.27 8.46Q49.25 8.57 49.24 9.11L49.24 9.11L49.24 9.34L49.18 9.88L49.18 9.88Q49.18 10.11 49.21 10.15L49.21 10.15L49.27 10.19L49.38 9.55L49.38 9.55Q49.38 9.45 49.46 9.37L49.46 9.37L49.63 8.96L49.63 8.96Q49.63 8.92 49.71 8.78L49.71 8.78L49.71 8.78Q49.74 8.68 49.85 8.50L49.85 8.50L49.85 8.50Q49.95 8.32 50.12 8.15L50.12 8.15L50.12 8.15Q50.12 8.04 50.37 7.99L50.37 7.99L50.37 7.99Q50.57 7.78 51.02 7.98L51.02 7.98L51.02 7.98Q51.10 7.98 51.17 8.01L51.17 8.01L51.17 8.01Q51.17 8.04 51.27 8.05L51.27 8.05L51.27 8.05Q51.38 8.06 51.53 8.23L51.53 8.23L51.53 8.39L51.53 8.39Q51.53 8.53 51.55 8.60L51.55 8.60L51.55 8.60Q51.53 8.69 51.56 8.85L51.56 8.85L51.56 9.02L51.56 9.02Q51.58 9.13 51.63 9.72L51.63 9.72L51.63 9.87L51.63 9.87Q51.67 9.95 51.67 10.04L51.67 10.04L51.67 10.04Q51.66 10.14 51.66 10.23L51.66 10.23L51.66 10.23Q51.70 10.28 51.73 10.46L51.73 10.46L51.73 10.46Q51.76 10.65 51.70 10.84L51.70 10.84L51.73 10.96L51.73 11.35L51.73 11.35Q51.80 11.41 51.80 11.52L51.80 11.52L51.84 11.76L51.84 11.76Q51.84 12.01 51.91 12.26L51.91 12.26L51.91 12.42L51.98 12.78L51.98 12.87L51.97 13.01L51.97 13.01Q51.97 13.16 51.80 13.23L51.80 13.23L51.80 13.23Q51.77 13.24 51.72 13.27L51.72 13.27L51.72 13.27Q51.67 13.30 51.56 13.30L51.56 13.30L51.27 13.20L51.13 13.10L51.13 13.10Q51.02 13.13 50.83 13.01L50.83 13.01L50.83 13.01Q50.83 12.88 50.74 12.78L50.74 12.78L50.74 12.78Q50.57 12.73 50.61 12.56L50.61 12.56L50.61 12.56Q50.62 12.54 50.54 12.40L50.54 12.40L50.54 12.40Q50.57 12.38 50.50 12.10L50.50 12.10L50.50 12.10Q50.50 11.97 50.48 11.85L50.48 11.85L50.48 11.85Q50.46 11.73 50.45 11.61L50.45 11.61L50.45 11.61Q50.44 11.48 50.40 11.38L50.40 11.38L50.40 11.38Q50.41 11.38 50.41 11.28L50.41 11.28L50.41 11.28Q50.41 11.19 50.39 11.10L50.39 11.10L50.39 10.78L50.32 10.22L50.11 10.86L50.11 10.86Q49.90 11.41 49.90 11.45L49.90 11.45L49.45 12.85L49.45 12.85Q49.41 12.94 49.29 13.04L49.29 13.04L49.29 13.04Q49.17 13.15 49.08 13.15L49.08 13.15L49.08 13.15Q49.06 13.10 48.94 13.10L48.94 13.10L48.94 13.10Q48.82 13.10 48.65 13.17L48.65 13.17L48.65 13.17Q48.17 13.23 48.10 12.88L48.10 12.88L48.08 12.56L48.09 12.24L48.09 12.24Q48.06 12.19 48.06 12.04L48.06 12.04L48.05 11.84L48.05 11.24L48.02 10.53L48.02 9.84L48.02 9.84Q47.61 10.95 47.52 11.28L47.52 11.28L47.00 12.95L47.00 12.95Q46.84 13.36 46.44 13.38L46.44 13.38L46.28 13.41L46.28 13.41Q45.98 13.48 45.88 13.31L45.88 13.31L45.74 13.08L45.74 13.08Q45.68 12.77 45.63 12.73L45.63 12.73L45.63 12.73Q45.60 12.53 45.49 12.32L45.49 12.32L45.42 11.98L45.42 11.98Q45.42 11.94 45.39 11.86L45.39 11.86L45.39 11.61L45.39 11.61Q45.35 11.49 45.32 11.15L45.32 11.15L45.32 11.15Q45.29 10.81 45.30 10.60L45.30 10.60L45.30 10.60Q45.25 10.43 45.28 10.18L45.28 10.18L45.28 9.93L45.28 9.93Q45.21 9.60 45.21 8.95L45.21 8.95L45.21 8.75L45.21 8.75Q45.28 8.33 45.28 8.18L45.28 8.18L45.28 8.18Q45.28 8.04 45.35 7.96L45.35 7.96L45.35 7.96Q45.42 7.88 45.79 7.66ZM54.92 8.69L54.89 9.03L54.89 9.03Q54.89 9.25 54.87 9.42L54.87 9.42L54.87 9.42Q54.85 9.59 54.85 9.63L54.85 9.63L54.85 9.63Q54.85 10.07 54.82 10.27L54.82 10.27L54.82 10.27Q54.78 10.47 54.78 10.60L54.78 10.60L54.78 11.23L54.78 11.23Q54.78 12.04 54.84 12.20L54.84 12.20L54.84 12.20Q54.89 12.36 55.03 12.42L55.03 12.42L55.03 12.42Q55.19 12.46 55.27 12.40L55.27 12.40L55.27 12.40Q55.36 12.33 55.43 12.20L55.43 12.20L55.43 12.20Q55.51 12.07 55.56 11.89L55.56 11.89L55.56 11.89Q55.61 11.72 55.71 11.51L55.71 11.51L55.71 11.51Q55.80 11.31 55.82 11.22L55.82 11.22L55.82 11.22Q55.85 11.13 55.94 10.99L55.94 10.99L55.94 10.99Q56.14 10.23 56.17 9.24L56.17 9.24L56.17 8.79L56.17 8.79Q56.20 8.23 56.38 7.85L56.38 7.85L56.38 7.85Q56.48 7.63 56.95 7.49L56.95 7.49L57.16 7.48L57.16 7.48Q57.44 7.48 57.53 7.56L57.53 7.56L57.53 7.56Q57.61 7.97 57.54 8.71L57.54 8.71L57.54 9.67L57.54 9.67Q57.57 10.37 57.57 10.64L57.57 10.64L57.57 10.64Q57.55 10.74 57.58 12.29L57.58 12.29L57.58 12.29Q57.57 12.31 57.58 12.66L57.58 12.66L57.58 12.66Q57.60 12.88 57.55 13.64L57.55 13.64L57.55 13.64Q57.50 14.39 57.50 14.55L57.50 14.55L57.50 14.55Q57.34 15.40 57.16 15.72L57.16 15.72L57.16 15.72Q56.97 16.04 56.64 16.28L56.64 16.28L56.64 16.28Q56.42 16.51 55.85 16.59L55.85 16.59L55.85 16.59Q55.80 16.58 55.62 16.58L55.62 16.58L55.62 16.58Q54.78 16.49 54.53 16.24L54.53 16.24L54.53 16.24Q53.79 15.86 53.67 15.69L53.67 15.69L53.67 15.69Q53.55 15.51 53.52 15.36L53.52 15.36L53.52 15.36Q53.49 15.20 53.61 14.84L53.61 14.84L53.61 14.84Q53.82 14.57 54.15 14.74L54.15 14.74L54.15 14.74Q54.29 14.81 54.66 15.02L54.66 15.02L55.12 15.25L55.12 15.25Q55.22 15.33 55.31 15.26L55.31 15.26L55.31 15.26Q55.45 15.18 55.48 15.18L55.48 15.18L55.48 15.18Q55.72 14.98 55.94 14.56L55.94 14.56L55.94 14.56Q55.94 14.42 56.08 14.14L56.08 14.14L56.08 14.14Q56.08 13.86 56.25 13.31L56.25 13.31L56.25 13.16L56.25 13.16Q56.25 12.95 56.28 12.80L56.28 12.80L56.28 12.80Q56.31 12.66 56.31 12.57L56.31 12.57L56.31 12.57Q56.20 12.78 56.13 12.96L56.13 12.96L56.13 12.96Q56.06 13.15 55.96 13.27L55.96 13.27L55.96 13.27Q55.94 13.36 55.66 13.44L55.66 13.44L55.15 13.45L55.15 13.45Q55.15 13.44 55.06 13.44L55.06 13.44L54.85 13.43L54.85 13.43Q54.11 13.43 53.91 13.23L53.91 13.23L53.91 13.23Q53.82 13.10 53.68 12.99L53.68 12.99L53.68 12.99Q53.55 12.84 53.52 12.60L53.52 12.60L53.52 12.60Q53.48 12.56 53.47 12.36L53.47 12.36L53.47 12.21L53.44 12.04L53.44 12.04Q53.45 12.01 53.41 11.84L53.41 11.84L53.41 11.84Q53.38 11.68 53.38 11.30L53.38 11.30L53.38 11.13L53.38 11.13Q53.38 9.88 53.41 9.83L53.41 9.83L53.41 9.83Q53.45 9.74 53.45 9.67L53.45 9.67L53.45 9.67Q53.42 9.60 53.47 9.52L53.47 9.52L53.49 9.32L53.63 8.89L53.63 8.89Q53.63 8.83 53.72 8.54L53.72 8.54L53.72 8.54Q53.80 8.46 53.82 8.34L53.82 8.34L53.82 8.34Q53.87 8.08 53.88 7.98L53.88 7.98L53.88 7.98Q53.89 7.88 54.00 7.71L54.00 7.71L54.00 7.71Q54.17 7.59 54.49 7.62L54.49 7.62L54.49 7.62Q54.82 7.66 55.06 7.91L55.06 7.91L54.91 8.53L54.91 8.53Q54.92 8.62 54.92 8.69L54.92 8.69ZM60.05 8.50L60.05 8.50L60.06 8.37L60.06 8.37Q59.77 8.34 59.65 8.32L59.65 8.32L59.65 8.32Q59.53 8.30 59.26 8.27L59.26 8.27L59.26 8.27Q59.00 8.25 58.84 8.19L58.84 8.19L58.84 8.19Q58.55 8.09 58.51 7.68L58.51 7.68L58.51 7.68Q58.46 7.27 58.77 7.17L58.77 7.17L58.77 7.17Q59.05 7.10 59.16 7.10L59.16 7.10L59.16 7.10Q59.28 7.10 59.58 7.07L59.58 7.07L59.58 7.07Q59.74 6.99 60.00 6.97L60.00 6.97L60.21 6.92L60.21 6.92Q60.21 6.93 60.33 6.89L60.33 6.89L60.40 6.59L60.40 6.59Q60.40 6.37 60.52 6.15L60.52 6.15L60.52 6.15Q60.52 6.05 60.70 5.60L60.70 5.60L60.70 5.60Q60.70 5.54 60.96 4.79L60.96 4.79L60.96 4.79Q61.01 4.72 61.38 4.47L61.38 4.47L61.38 4.47Q61.60 4.35 62.01 4.62L62.01 4.62L62.01 4.62Q62.23 4.72 62.31 4.89L62.31 4.89L62.31 4.89Q62.23 4.97 62.23 5.28L62.23 5.28L62.23 5.28Q62.22 5.38 62.03 6.31L62.03 6.31L62.03 6.71L62.03 6.71Q62.15 6.72 62.40 6.78L62.40 6.78L62.40 6.78Q62.66 6.83 63.03 6.90L63.03 6.90L63.03 6.90Q63.73 7.04 63.91 7.46L63.91 7.46L63.91 7.46Q63.98 7.77 63.88 7.90L63.88 7.90L63.88 7.90Q63.78 8.02 63.41 8.08L63.41 8.08L63.41 8.08Q63.10 8.09 62.60 8.09L62.60 8.09L62.60 8.09Q62.10 8.09 61.87 8.16L61.87 8.16L61.87 8.16Q61.84 8.41 61.84 8.55L61.84 8.55L61.82 8.76L61.82 8.76Q61.82 8.86 61.70 9.80L61.70 9.80L61.70 9.80Q61.61 9.93 61.56 11.10L61.56 11.10L61.56 12.12L61.56 12.12Q61.56 12.38 61.60 12.60L61.60 12.60L61.60 12.60Q61.61 12.91 61.67 13.03L61.67 13.03L61.67 13.03Q61.67 13.16 61.74 13.57L61.74 13.57L61.74 13.57Q61.57 13.97 61.19 13.97L61.19 13.97L61.19 13.97Q60.80 13.97 60.51 13.69L60.51 13.69L60.35 13.47L60.35 13.47Q60.31 13.36 60.29 13.31L60.29 13.31L60.29 13.31Q60.27 13.27 60.26 13.22L60.26 13.22L60.26 13.22Q60.16 12.94 60.10 12.87L60.10 12.87L60.10 12.87Q60.02 12.75 60.02 12.70L60.02 12.70L60.02 12.70Q60.02 12.64 60.02 12.56L60.02 12.56L60.02 12.56Q59.99 12.32 59.95 12.15L59.95 12.15L59.95 12.15Q59.88 12.08 59.88 11.68L59.88 11.68L59.88 11.68Q59.91 10.93 59.88 10.82L59.88 10.82L59.88 10.82Q59.92 10.78 59.89 10.29L59.89 10.29L59.93 9.98L59.93 9.98Q59.93 9.93 59.99 9.56L59.99 9.56L59.99 9.56Q59.96 9.51 59.98 9.26L59.98 9.26L59.98 9.26Q59.99 9.02 60.02 8.92L60.02 8.92L60.02 8.92Q60.05 8.75 60.05 8.50ZM64.19 10.05L64.06 9.31L64.06 9.31Q64.06 9.18 64.04 9.02L64.04 9.02L64.04 8.92L64.04 8.92Q64.05 8.82 64.02 8.71L64.02 8.71L64.02 8.71Q64.02 8.57 64.05 8.46L64.05 8.46L64.05 8.46Q64.05 8.18 64.12 8.09L64.12 8.09L64.12 8.09Q64.12 8.02 64.32 7.77L64.32 7.77L64.32 7.77Q64.37 7.71 64.53 7.59L64.53 7.59L64.53 7.59Q64.75 7.52 64.83 7.50L64.83 7.50L64.83 7.50Q64.89 7.45 65.21 7.55L65.21 7.55L65.21 7.55Q65.35 7.56 65.65 7.64L65.65 7.64L65.65 7.64Q65.74 7.67 65.90 7.87L65.90 7.87L65.90 7.87Q65.87 7.92 65.81 8.28L65.81 8.28L65.81 8.28Q65.74 8.64 65.76 8.86L65.76 8.86L65.76 8.86Q65.84 8.79 66.05 8.57L66.05 8.57L66.05 8.57Q66.26 8.34 66.28 8.33L66.28 8.33L66.28 8.33Q66.64 8.16 66.99 8.09L66.99 8.09L66.99 8.09Q67.49 8.05 67.65 8.16L67.65 8.16L67.65 8.16Q67.77 8.20 67.84 8.29L67.84 8.29L67.84 8.29Q67.97 8.40 68.05 8.67L68.05 8.67L68.05 8.67Q68.14 8.95 68.04 9.02L68.04 9.02L68.04 9.02Q67.96 9.09 67.48 9.13L67.48 9.13L67.48 9.13Q67.45 9.13 67.28 9.24L67.28 9.24L66.56 9.81L66.56 9.81Q66.33 9.93 66.25 10.01L66.25 10.01L65.98 10.50L65.98 10.50Q65.97 10.53 65.95 10.86L65.95 10.86L65.95 10.86Q65.94 11.20 65.95 11.35L65.95 11.35L65.95 11.35Q65.97 11.49 65.95 12.29L65.95 12.29L65.95 12.89L65.95 12.89Q65.95 13.38 65.94 13.46L65.94 13.46L65.94 13.46Q65.93 13.54 65.83 13.73L65.83 13.73L65.83 13.73Q65.79 13.80 65.56 13.80L65.56 13.80L65.56 13.80Q65.02 14.21 64.86 13.76L64.86 13.76L64.68 13.65L64.68 13.65Q64.57 13.59 64.54 13.51L64.54 13.51L64.54 13.51Q64.43 13.36 64.43 13.33L64.43 13.33L64.37 13.13L64.29 12.96L64.29 12.96Q64.25 12.95 64.22 12.42L64.22 12.42L64.22 12.42Q64.19 11.90 64.19 11.78L64.19 11.78L64.19 11.78Q64.19 11.66 64.16 11.52L64.16 11.52L64.16 11.52Q64.26 11.42 64.25 11.19L64.25 11.19L64.25 11.19Q64.25 10.95 64.22 10.81L64.22 10.81L64.22 10.81Q64.19 10.68 64.22 10.65L64.22 10.65L64.22 10.65Q64.25 10.61 64.20 10.26L64.20 10.26L64.20 10.26Q64.16 10.21 64.19 10.05L64.19 10.05ZM71.29 9.31L71.29 9.31L71.29 9.31Q71.19 8.75 70.74 8.79L70.74 8.79L70.74 8.79Q70.49 8.81 70.31 9.13L70.31 9.13L70.31 9.13Q70.06 9.62 70.09 10.39L70.09 10.39L70.09 10.39Q70.13 11.17 70.20 11.51L70.20 11.51L70.20 11.51Q70.28 11.86 70.48 12.11L70.48 12.11L70.48 12.11Q70.59 12.31 70.81 12.29L70.81 12.29L70.81 12.29Q71.20 12.29 71.39 11.63L71.39 11.63L71.50 11.30L71.50 11.30Q71.57 11.23 71.53 11.16L71.53 11.16L71.53 11.16Q71.67 10.81 71.68 10.33L71.68 10.33L71.68 10.33Q71.54 10.23 71.51 10.15L71.51 10.15L71.51 10.15Q71.43 9.91 71.43 9.83L71.43 9.83L71.43 9.83Q71.33 9.76 71.32 9.56L71.32 9.56L71.32 9.56Q71.30 9.37 71.29 9.31ZM68.73 10.63L68.73 10.63L68.78 9.91L68.78 9.91Q68.88 8.95 69.37 8.26L69.37 8.26L69.37 8.26Q69.85 7.69 70.71 7.67L70.71 7.67L70.80 7.67L70.80 7.67Q71.61 7.67 71.97 8.02L71.97 8.02L71.97 8.02Q72.37 8.33 72.56 8.69L72.56 8.69L72.56 8.69Q72.74 9.06 72.80 9.23L72.80 9.23L72.80 9.23Q72.86 9.39 72.87 9.72L72.87 9.72L72.87 9.72Q72.90 10.32 72.63 10.40L72.63 10.40L72.63 10.40Q72.83 11.73 72.39 12.52L72.39 12.52L72.39 12.52Q72.25 12.84 71.99 13.22L71.99 13.22L71.99 13.22Q71.79 13.47 71.29 13.50L71.29 13.50L71.29 13.50Q70.78 13.50 70.41 13.44L70.41 13.44L70.41 13.44Q70.04 13.38 69.59 13.08L69.59 13.08L69.59 13.08Q69.15 12.78 68.96 12.10L68.96 12.10L68.96 12.10Q68.77 11.44 68.73 10.63Z"></path></g><!----><g data-v-423bf9ae="" id="b3c41dbb-caa7-4652-8843-3ae79d8b5ae9" transform="matrix(1.0868111504448785,0,0,1.0868111504448785,-13.255261890115804,-0.23894260335429607)" stroke="none" fill="white"><g clip-rule="evenodd"><path d="M12.983 10.59l17.018 88.223-5.872-59.049 29.021-1.892-.054-9.883L64.549 1 53.622 18.977z"></path><path d="M59.389 54.548l5.16-53.541-8.74 39.716-19.612 1.045 1.57 20.462-7.766 36.583 12.057-39.899z"></path><path d="M62.8 67.182l.549-10.453-15.979 3.755-.032 11.797-17.337 26.532 21.68-27.616zM65.711 62.394l14.841-4.731 1.509-12.532-15.899 2.095zM72.07 44.502l10.988-1.417 1.581-10.278-8.079-.373L64.549 1l8.43 30.967z"></path><path d="M87.413 31.294l1.256-9.506-9.544-2.694L64.549 1l14.483 22.437-.422 7z"></path></g></g><!----></svg>