<svg data-v-423bf9ae="" xmlns="http://www.w3.org/2000/svg" viewBox="0 0 664 112" class="iconLeft"><!----><!----><!----><g data-v-423bf9ae="" id="0cdb04cd-ad4e-41ee-ae9e-428c4750232a" fill="white" transform="matrix(5.9940058569511425,0,0,5.9940058569511425,125.23698363348359,-5.553336827439743)"><path d="M0.98 5.75L0.98 5.19L4.76 5.19L4.76 5.19Q7.28 5.19 8.83 6.56L8.83 6.56L8.83 6.56Q10.39 7.92 10.39 10.09L10.39 10.09L10.39 10.09Q10.39 12.25 8.83 13.62L8.83 13.62L8.83 13.62Q7.28 14.99 4.76 14.99L4.76 14.99L0.98 14.99L0.98 14.43L2.10 14.43L2.10 5.75L0.98 5.75ZM4.76 5.75L4.76 5.75L4.20 5.75L4.20 14.43L4.76 14.43L4.76 14.43Q6.38 14.43 7.30 13.27L7.30 13.27L7.30 13.27Q8.22 12.10 8.22 10.09L8.22 10.09L8.22 10.09Q8.22 8.09 7.30 6.92L7.30 6.92L7.30 6.92Q6.38 5.75 4.76 5.75ZM12.89 14.13L12.89 14.13L12.89 14.13Q11.86 13.06 11.86 11.49L11.86 11.49L11.86 11.49Q11.86 9.93 12.89 8.86L12.89 8.86L12.89 8.86Q13.92 7.78 15.57 7.78L15.57 7.78L15.57 7.78Q17.22 7.78 18.25 8.86L18.25 8.86L18.25 8.86Q19.28 9.93 19.28 11.49L19.28 11.49L19.28 11.49Q19.28 13.06 18.25 14.13L18.25 14.13L18.25 14.13Q17.22 15.20 15.57 15.20L15.57 15.20L15.57 15.20Q13.92 15.20 12.89 14.13ZM14.42 9.25L14.42 9.25L14.42 9.25Q14.03 10.12 14.03 11.49L14.03 11.49L14.03 11.49Q14.03 12.87 14.42 13.74L14.42 13.74L14.42 13.74Q14.81 14.62 15.58 14.62L15.58 14.62L15.58 14.62Q16.35 14.62 16.74 13.74L16.74 13.74L16.74 13.74Q17.14 12.87 17.14 11.49L17.14 11.49L17.14 11.49Q17.14 10.12 16.74 9.25L16.74 9.25L16.74 9.25Q16.35 8.37 15.58 8.37L15.58 8.37L15.58 8.37Q14.81 8.37 14.42 9.25ZM21.92 7.99L21.92 7.99L21.92 7.99Q23.07 7.99 24.00 8.69L24.00 8.69L24.00 8.69Q24.53 8.19 25.09 7.99L25.09 7.99L25.09 7.99Q25.65 7.78 26.52 7.78L26.52 7.78L26.52 7.78Q27.40 7.78 27.95 8.34L27.95 8.34L27.95 8.34Q28.50 8.89 28.50 9.84L28.50 9.84L28.50 13.44L28.50 13.44Q28.50 13.82 28.69 14.04L28.69 14.04L28.69 14.04Q28.87 14.25 29.25 14.25L29.25 14.25L29.25 14.25Q29.62 14.25 30.11 13.85L30.11 13.85L30.37 14.18L30.37 14.18Q29.25 15.20 28.13 15.20L28.13 15.20L28.13 15.20Q26.40 15.20 26.40 13.15L26.40 13.15L26.40 9.55L26.40 9.55Q26.40 9.11 26.14 8.88L26.14 8.88L26.14 8.88Q25.87 8.64 25.40 8.64L25.40 8.64L25.40 8.64Q24.93 8.64 24.48 9.02L24.48 9.02L24.48 9.02Q24.02 9.39 24.02 10.00L24.02 10.00L24.02 14.99L21.92 14.99L21.92 8.55L21.92 8.55Q21.29 8.55 20.80 8.76L20.80 8.76L20.61 8.25L20.61 8.25Q21.21 7.99 21.92 7.99ZM33.92 11.76L33.92 11.76Q34.83 11.68 35.33 11.07L35.33 11.07L35.33 11.07Q35.83 10.46 35.83 9.84L35.83 9.84L35.83 9.84Q35.83 9.21 35.55 8.88L35.55 8.88L35.55 8.88Q35.28 8.54 34.73 8.54L34.73 8.54L34.73 8.54Q34.17 8.54 33.67 9.32L33.67 9.32L33.67 9.32Q33.17 10.11 33.17 11.42L33.17 11.42L33.17 11.42Q33.17 12.74 33.64 13.54L33.64 13.54L33.64 13.54Q34.12 14.34 35 14.34L35 14.34L35 14.34Q36.34 14.34 37.28 13.29L37.28 13.29L37.67 13.54L37.67 13.54Q37.20 14.29 36.41 14.75L36.41 14.75L36.41 14.75Q35.63 15.20 34.65 15.20L34.65 15.20L34.65 15.20Q32.98 15.20 31.99 14.11L31.99 14.11L31.99 14.11Q31.00 13.01 31.00 11.45L31.00 11.45L31.00 11.45Q31.00 9.90 32.05 8.84L32.05 8.84L32.05 8.84Q33.11 7.78 34.99 7.78L34.99 7.78L34.99 7.78Q36.22 7.78 36.92 8.36L36.92 8.36L36.92 8.36Q37.62 8.93 37.62 9.81L37.62 9.81L37.62 9.81Q37.62 10.70 36.84 11.45L36.84 11.45L36.84 11.45Q36.06 12.19 34.79 12.19L34.79 12.19L34.79 12.19Q34.36 12.19 33.95 12.10L33.95 12.10L33.92 11.76ZM40.14 8.76L38.99 8.76L38.99 8.19L40.14 8.19L40.14 6.17L42.24 6.17L42.24 8.19L43.82 8.19L43.82 8.76L42.24 8.76L42.24 13.44L42.24 13.44Q42.24 13.82 42.42 14.04L42.42 14.04L42.42 14.04Q42.60 14.25 42.98 14.25L42.98 14.25L42.98 14.25Q43.36 14.25 43.85 13.85L43.85 13.85L44.10 14.18L44.10 14.18Q42.98 15.20 41.86 15.20L41.86 15.20L41.86 15.20Q40.14 15.20 40.14 13.15L40.14 13.15L40.14 8.76ZM46.83 9.14L46.83 9.14L46.83 9.14Q46.49 8.62 46.49 8.22L46.49 8.22L46.49 8.22Q46.49 7.81 46.81 7.50L46.81 7.50L46.81 7.50Q47.12 7.18 47.57 7.18L47.57 7.18L47.57 7.18Q48.02 7.18 48.34 7.50L48.34 7.50L48.34 7.50Q48.65 7.81 48.65 8.25L48.65 8.25L48.65 8.25Q48.65 8.68 48.22 9.17L48.22 9.17L48.22 9.17Q49.36 10.01 49.98 10.81L49.98 10.81L49.98 10.81Q50.60 11.62 50.60 12.68L50.60 12.68L50.60 12.68Q50.60 13.73 49.80 14.47L49.80 14.47L49.80 14.47Q49 15.20 47.53 15.20L47.53 15.20L47.53 15.20Q46.86 15.20 46.18 14.91L46.18 14.91L46.18 14.91Q45.50 14.62 45.15 14.18L45.15 14.18L45.47 13.85L45.47 13.85Q46.09 14.34 46.80 14.34L46.80 14.34L46.80 14.34Q47.52 14.34 47.97 13.95L47.97 13.95L47.97 13.95Q48.43 13.57 48.43 12.75L48.43 12.75L48.43 12.75Q48.43 11.47 47.47 10.07L47.47 10.07L45.36 12.71L45.01 12.40L45.01 12.40Q46.07 10.68 46.83 9.14ZM57.04 5.75L56.06 5.75L56.06 5.19L60.12 5.19L60.12 5.75L59.14 5.75L59.14 14.43L60.12 14.43L60.12 14.99L56.06 14.99L56.06 14.43L57.04 14.43L57.04 5.75ZM66.42 9.48L66.42 9.48L66.42 9.48Q66.11 9.17 66.11 8.72L66.11 8.72L66.11 8.72Q66.11 8.27 66.42 7.96L66.42 7.96L66.42 7.96Q66.74 7.64 67.21 7.64L67.21 7.64L67.21 7.64Q67.69 7.64 68.03 8.00L68.03 8.00L68.03 8.00Q68.38 8.36 68.52 8.95L68.52 8.95L68.52 8.95Q68.78 9.97 68.78 10.95L68.78 10.95L68.78 10.95Q68.78 11.93 68.54 12.66L68.54 12.66L68.54 12.66Q68.31 13.38 67.93 13.84L67.93 13.84L67.93 13.84Q67.55 14.29 67.09 14.62L67.09 14.62L67.09 14.62Q66.22 15.20 65.37 15.20L65.37 15.20L65.37 15.20Q64.18 15.20 63.48 14.61L63.48 14.61L63.48 14.61Q62.79 14.01 62.79 12.87L62.79 12.87L62.79 8.46L62.79 8.46Q62.02 8.65 61.61 9.14L61.61 9.14L61.24 8.71L61.24 8.71Q61.64 8.29 62.27 8.04L62.27 8.04L62.27 8.04Q62.89 7.78 63.50 7.78L63.50 7.78L63.50 7.78Q64.11 7.78 64.50 8.03L64.50 8.03L64.50 8.03Q64.89 8.27 64.89 8.64L64.89 8.64L64.89 13.30L64.89 13.30Q64.89 13.75 65.17 13.98L65.17 13.98L65.17 13.98Q65.45 14.21 65.87 14.21L65.87 14.21L65.87 14.21Q66.75 14.21 67.40 13.29L67.40 13.29L67.40 13.29Q68.04 12.38 68.04 11.05L68.04 11.05L68.04 11.05Q68.04 10.37 67.77 9.63L67.77 9.63L67.77 9.63Q67.52 9.80 67.13 9.80L67.13 9.80L67.13 9.80Q66.74 9.80 66.42 9.48ZM75.88 7.99L77.98 7.99L77.98 13.44L77.98 13.44Q77.98 13.82 78.16 14.04L78.16 14.04L78.16 14.04Q78.34 14.25 78.72 14.25L78.72 14.25L78.72 14.25Q79.10 14.25 79.59 13.85L79.59 13.85L79.84 14.18L79.84 14.18Q78.72 15.20 77.60 15.20L77.60 15.20L77.60 15.20Q76.27 15.20 75.96 13.96L75.96 13.96L75.96 13.96Q75.24 15.20 73.82 15.20L73.82 15.20L73.82 15.20Q72.21 15.20 71.37 14.16L71.37 14.16L71.37 14.16Q70.53 13.12 70.53 11.50L70.53 11.50L70.53 11.50Q70.53 9.88 71.44 8.83L71.44 8.83L71.44 8.83Q72.34 7.78 73.96 7.78L73.96 7.78L73.96 7.78Q75.21 7.78 75.88 8.78L75.88 8.78L75.88 7.99ZM73.09 9.37L73.09 9.37L73.09 9.37Q72.70 10.15 72.70 11.49L72.70 11.49L72.70 11.49Q72.70 12.84 73.09 13.62L73.09 13.62L73.09 13.62Q73.49 14.41 74.29 14.41L74.29 14.41L74.29 14.41Q75.10 14.41 75.52 13.62L75.52 13.62L75.52 13.62Q75.95 12.82 75.95 11.49L75.95 11.49L75.95 11.49Q75.95 10.16 75.52 9.37L75.52 9.37L75.52 9.37Q75.10 8.58 74.29 8.58L74.29 8.58L74.29 8.58Q73.49 8.58 73.09 9.37ZM81.30 7.99L81.30 7.99L81.30 7.99Q82.45 7.99 83.37 8.69L83.37 8.69L83.37 8.69Q83.90 8.19 84.46 7.99L84.46 7.99L84.46 7.99Q85.02 7.78 85.90 7.78L85.90 7.78L85.90 7.78Q86.77 7.78 87.33 8.34L87.33 8.34L87.33 8.34Q87.88 8.89 87.88 9.84L87.88 9.84L87.88 13.44L87.88 13.44Q87.88 13.82 88.06 14.04L88.06 14.04L88.06 14.04Q88.24 14.25 88.62 14.25L88.62 14.25L88.62 14.25Q89.00 14.25 89.49 13.85L89.49 13.85L89.74 14.18L89.74 14.18Q88.62 15.20 87.50 15.20L87.50 15.20L87.50 15.20Q85.78 15.20 85.78 13.15L85.78 13.15L85.78 9.55L85.78 9.55Q85.78 9.11 85.51 8.88L85.51 8.88L85.51 8.88Q85.25 8.64 84.78 8.64L84.78 8.64L84.78 8.64Q84.31 8.64 83.85 9.02L83.85 9.02L83.85 9.02Q83.40 9.39 83.40 10.00L83.40 10.00L83.40 14.99L81.30 14.99L81.30 8.55L81.30 8.55Q80.67 8.55 80.18 8.76L80.18 8.76L79.98 8.25L79.98 8.25Q80.58 7.99 81.30 7.99Z"></path></g><!----><g data-v-423bf9ae="" id="c417dd51-0cd5-4093-80ca-175ecc01c594" transform="matrix(1.1111111111111112,0,0,1.1111111111111112,0.44444444444444287,0.44444444444444287)" stroke="none" fill="white"><path d="M49.998 100C22.429 100 0 77.57 0 49.998 0 22.429 22.429 0 49.998 0 77.57 0 100 22.429 100 49.998 100 77.57 77.57 100 49.998 100zm0-90.909c-22.556 0-40.907 18.351-40.907 40.907 0 22.558 18.351 40.912 40.907 40.912 22.558 0 40.912-18.354 40.912-40.912 0-22.556-18.354-40.907-40.912-40.907z"></path><path d="M29.119 78.442l3.988-23.246-16.891-16.467 23.343-3.393 10.438-21.154 10.44 21.154 23.348 3.393L66.89 55.196l3.993 23.246-20.885-10.976-20.879 10.976zM49.998 60.62l12.833 6.744-2.454-14.284L70.76 42.961l-14.348-2.084-6.415-12.999-6.414 12.998-14.346 2.085 10.38 10.119-2.451 14.284 12.832-6.744z"></path></g><!----></svg>