<svg data-v-423bf9ae="" xmlns="http://www.w3.org/2000/svg" viewBox="0 0 696 90" class="iconLeft"><!----><!----><!----><g data-v-423bf9ae="" id="9f55e032-aca8-4949-992e-28cdde72397b" fill="white" transform="matrix(4.769475386636096,0,0,4.769475386636096,107.6629610470199,-1.645467952752341)"><path d="M4.76 13.72L0.49 13.72L0.49 13.09L1.68 12.75L1.68 6.08L0.49 5.75L0.49 5.12L4.76 5.12L4.76 5.75L3.57 6.08L3.57 9.03L6.73 9.03L6.73 6.08L5.53 5.75L5.53 5.12L9.81 5.12L9.81 5.75L8.62 6.08L8.62 12.75L9.81 13.09L9.81 13.72L5.54 13.72L5.54 13.09L6.73 12.75L6.73 9.86L3.57 9.86L3.57 12.75L4.76 13.09L4.76 13.72ZM14.08 6.69L14.08 6.69Q15.88 6.69 16.72 7.69L16.72 7.69L16.72 7.69Q17.57 8.68 17.57 10.30L17.57 10.30L17.57 10.30Q17.57 11.87 16.72 12.87L16.72 12.87L16.72 12.87Q15.86 13.86 14.08 13.86L14.08 13.86L14.08 13.86Q12.35 13.86 11.50 12.87L11.50 12.87L11.50 12.87Q10.65 11.87 10.65 10.30L10.65 10.30L10.65 10.30Q10.65 8.68 11.49 7.69L11.49 7.69L11.49 7.69Q12.32 6.69 14.08 6.69L14.08 6.69ZM15.54 10.28L15.54 10.28Q15.54 9.00 15.22 8.32L15.22 8.32L15.22 8.32Q14.90 7.63 14.06 7.63L14.06 7.63L14.06 7.63Q13.27 7.63 12.98 8.32L12.98 8.32L12.98 8.32Q12.68 9.00 12.68 10.28L12.68 10.28L12.68 10.28Q12.68 11.54 13.00 12.22L13.00 12.22L13.00 12.22Q13.31 12.91 14.14 12.91L14.14 12.91L14.14 12.91Q14.95 12.91 15.25 12.23L15.25 12.23L15.25 12.23Q15.54 11.55 15.54 10.28L15.54 10.28ZM25.14 7.56L24.26 7.80L22.11 13.79L20.75 13.93L18.47 7.77L17.75 7.56L17.75 6.83L21.21 6.83L21.21 7.60L20.50 7.77L21.73 11.63L23.00 7.80L22.11 7.60L22.11 6.83L25.14 6.83L25.14 7.56ZM33.46 13.72L29.62 13.72L29.62 13.09L30.46 12.74L30.46 8.62L30.46 8.62Q30.46 8.13 30.29 7.98L30.29 7.98L30.29 7.98Q30.11 7.83 29.55 7.83L29.55 7.83L29.55 7.83Q28.74 7.83 28.15 7.99L28.15 7.99L28.15 12.74L28.99 13.09L28.99 13.72L25.17 13.72L25.17 13.02L26.26 12.74L26.26 4.86L25.17 4.70L25.17 4.03L27.54 3.49L28.15 3.49L28.15 7.25L28.15 7.25Q28.56 7.06 29.32 6.87L29.32 6.87L29.32 6.87Q30.07 6.69 30.65 6.69L30.65 6.69L30.65 6.69Q31.39 6.69 31.87 7.05L31.87 7.05L31.87 7.05Q32.35 7.41 32.35 8.15L32.35 8.15L32.35 12.74L33.46 13.09L33.46 13.72ZM36.90 7.76L36.90 7.76Q36.37 7.76 35.90 7.92L35.90 7.92L35.59 9.10L34.76 9.10L34.52 7.21L34.52 7.21Q35.92 6.69 37.42 6.69L37.42 6.69L37.42 6.69Q38.56 6.69 39.12 7.07L39.12 7.07L39.12 7.07Q39.69 7.45 39.69 8.44L39.69 8.44L39.69 12.56L40.78 12.95L40.78 13.55L40.78 13.55Q40.22 13.69 39.91 13.74L39.91 13.74L39.91 13.74Q39.61 13.79 39.24 13.79L39.24 13.79L39.24 13.79Q38.75 13.79 38.35 13.60L38.35 13.60L38.35 13.60Q37.95 13.41 37.84 13.05L37.84 13.05L37.84 13.05Q37.28 13.47 36.81 13.66L36.81 13.66L36.81 13.66Q36.33 13.86 35.77 13.86L35.77 13.86L35.77 13.86Q35 13.86 34.56 13.40L34.56 13.40L34.56 13.40Q34.12 12.94 34.12 12.14L34.12 12.14L34.12 12.14Q34.12 11.47 34.53 10.89L34.53 10.89L34.53 10.89Q34.94 10.30 35.91 10.11L35.91 10.11L37.80 9.72L37.80 8.74L37.80 8.74Q37.80 8.19 37.60 7.97L37.60 7.97L37.60 7.97Q37.39 7.76 36.90 7.76L36.90 7.76ZM36.96 10.74L36.96 10.74Q36.41 10.88 36.19 11.17L36.19 11.17L36.19 11.17Q35.97 11.47 35.97 11.94L35.97 11.94L35.97 11.94Q35.97 12.73 36.69 12.73L36.69 12.73L36.69 12.73Q36.96 12.73 37.28 12.61L37.28 12.61L37.28 12.61Q37.59 12.49 37.80 12.35L37.80 12.35L37.80 10.53L36.96 10.74ZM44.20 7.25L44.20 7.25Q44.56 7.08 45.32 6.89L45.32 6.89L45.32 6.89Q46.07 6.69 46.66 6.69L46.66 6.69L46.66 6.69Q47.42 6.69 47.91 7.04L47.91 7.04L47.91 7.04Q48.40 7.39 48.40 8.15L48.40 8.15L48.40 12.74L49.50 13.09L49.50 13.72L45.67 13.72L45.67 13.09L46.51 12.74L46.51 8.62L46.51 8.62Q46.51 8.27 46.42 8.11L46.42 8.11L46.42 8.11Q46.34 7.94 46.14 7.88L46.14 7.88L46.14 7.88Q45.95 7.83 45.54 7.83L45.54 7.83L45.54 7.83Q44.80 7.83 44.20 7.99L44.20 7.99L44.20 12.74L45.04 13.09L45.04 13.72L41.22 13.72L41.22 13.09L42.31 12.74L42.31 8.05L41.22 7.91L41.22 7.21L43.58 6.69L44.20 6.69L44.20 7.25ZM53.02 7.25L53.02 7.25Q53.38 7.08 54.14 6.89L54.14 6.89L54.14 6.89Q54.89 6.69 55.48 6.69L55.48 6.69L55.48 6.69Q56.24 6.69 56.73 7.04L56.73 7.04L56.73 7.04Q57.22 7.39 57.22 8.15L57.22 8.15L57.22 12.74L58.32 13.09L58.32 13.72L54.49 13.72L54.49 13.09L55.33 12.74L55.33 8.62L55.33 8.62Q55.33 8.27 55.24 8.11L55.24 8.11L55.24 8.11Q55.16 7.94 54.96 7.88L54.96 7.88L54.96 7.88Q54.77 7.83 54.36 7.83L54.36 7.83L54.36 7.83Q53.62 7.83 53.02 7.99L53.02 7.99L53.02 12.74L53.86 13.09L53.86 13.72L50.04 13.72L50.04 13.09L51.13 12.74L51.13 8.05L50.04 7.91L50.04 7.21L52.40 6.69L53.02 6.69L53.02 7.25ZM60.89 5.80L60.89 5.80Q60.41 5.80 60.05 5.47L60.05 5.47L60.05 5.47Q59.68 5.14 59.68 4.68L59.68 4.68L59.68 4.68Q59.68 4.20 60.05 3.85L60.05 3.85L60.05 3.85Q60.41 3.50 60.89 3.50L60.89 3.50L60.89 3.50Q61.36 3.50 61.70 3.85L61.70 3.85L61.70 3.85Q62.03 4.20 62.03 4.68L62.03 4.68L62.03 4.68Q62.03 5.15 61.70 5.47L61.70 5.47L61.70 5.47Q61.36 5.80 60.89 5.80L60.89 5.80ZM62.93 13.72L58.86 13.72L58.86 13.02L59.95 12.74L59.95 8.06L58.86 7.91L58.86 7.24L61.22 6.69L61.84 6.69L61.84 12.74L62.93 13.02L62.93 13.72ZM66.42 7.63L66.42 7.63Q65.88 7.63 65.58 7.83L65.58 7.83L65.58 7.83Q65.27 8.04 65.27 8.39L65.27 8.39L65.27 8.39Q65.27 8.68 65.42 8.88L65.42 8.88L65.42 8.88Q65.56 9.07 65.93 9.20L65.93 9.20L67.52 9.70L67.52 9.70Q68.25 9.93 68.59 10.38L68.59 10.38L68.59 10.38Q68.94 10.84 68.94 11.68L68.94 11.68L68.94 11.68Q68.94 12.68 68.17 13.27L68.17 13.27L68.17 13.27Q67.40 13.86 66.02 13.86L66.02 13.86L66.02 13.86Q65.48 13.86 64.83 13.77L64.83 13.77L64.83 13.77Q64.18 13.68 63.69 13.51L63.69 13.51L63.85 11.56L64.67 11.56L64.96 12.74L64.96 12.74Q65.44 12.91 65.97 12.91L65.97 12.91L65.97 12.91Q67.34 12.91 67.34 12.05L67.34 12.05L67.34 12.05Q67.34 11.75 67.18 11.61L67.18 11.61L67.18 11.61Q67.02 11.47 66.57 11.31L66.57 11.31L65.04 10.79L65.04 10.79Q64.37 10.57 64.04 10.12L64.04 10.12L64.04 10.12Q63.70 9.66 63.70 8.90L63.70 8.90L63.70 8.90Q63.70 7.87 64.39 7.28L64.39 7.28L64.39 7.28Q65.07 6.69 66.44 6.69L66.44 6.69L66.44 6.69Q66.99 6.69 67.57 6.80L67.57 6.80L67.57 6.80Q68.15 6.90 68.64 7.10L68.64 7.10L68.45 8.86L67.66 8.86L67.38 7.83L67.38 7.83Q67.14 7.73 66.93 7.68L66.93 7.68L66.93 7.68Q66.72 7.63 66.42 7.63L66.42 7.63ZM72.59 6.83L72.59 7.39L71.93 7.77L73.28 11.28L74.45 7.80L73.56 7.60L73.56 6.83L76.59 6.83L76.59 7.56L75.71 7.80L73.72 13.24L73.72 13.24Q73.21 14.66 72.60 15.37L72.60 15.37L72.60 15.37Q71.99 16.07 71.09 16.07L71.09 16.07L71.09 16.07Q70.35 16.07 69.44 15.67L69.44 15.67L69.55 15.02L70.46 15.02L70.46 15.02Q71.68 15.02 72.32 13.36L72.32 13.36L69.93 7.77L69.23 7.39L69.23 6.83L72.59 6.83ZM79.67 7.76L79.67 7.76Q79.14 7.76 78.67 7.92L78.67 7.92L78.36 9.10L77.53 9.10L77.29 7.21L77.29 7.21Q78.69 6.69 80.19 6.69L80.19 6.69L80.19 6.69Q81.33 6.69 81.89 7.07L81.89 7.07L81.89 7.07Q82.46 7.45 82.46 8.44L82.46 8.44L82.46 12.56L83.55 12.95L83.55 13.55L83.55 13.55Q82.99 13.69 82.68 13.74L82.68 13.74L82.68 13.74Q82.38 13.79 82.01 13.79L82.01 13.79L82.01 13.79Q81.52 13.79 81.12 13.60L81.12 13.60L81.12 13.60Q80.72 13.41 80.61 13.05L80.61 13.05L80.61 13.05Q80.05 13.47 79.58 13.66L79.58 13.66L79.58 13.66Q79.10 13.86 78.54 13.86L78.54 13.86L78.54 13.86Q77.77 13.86 77.33 13.40L77.33 13.40L77.33 13.40Q76.89 12.94 76.89 12.14L76.89 12.14L76.89 12.14Q76.89 11.47 77.30 10.89L77.30 10.89L77.30 10.89Q77.71 10.30 78.68 10.11L78.68 10.11L80.57 9.72L80.57 8.74L80.57 8.74Q80.57 8.19 80.37 7.97L80.37 7.97L80.37 7.97Q80.16 7.76 79.67 7.76L79.67 7.76ZM79.73 10.74L79.73 10.74Q79.18 10.88 78.96 11.17L78.96 11.17L78.96 11.17Q78.74 11.47 78.74 11.94L78.74 11.94L78.74 11.94Q78.74 12.73 79.46 12.73L79.46 12.73L79.46 12.73Q79.73 12.73 80.05 12.61L80.05 12.61L80.05 12.61Q80.36 12.49 80.57 12.35L80.57 12.35L80.57 10.53L79.73 10.74ZM86.97 7.25L86.97 7.25Q87.33 7.08 88.09 6.89L88.09 6.89L88.09 6.89Q88.84 6.69 89.43 6.69L89.43 6.69L89.43 6.69Q90.19 6.69 90.68 7.04L90.68 7.04L90.68 7.04Q91.17 7.39 91.17 8.15L91.17 8.15L91.17 12.74L92.27 13.09L92.27 13.72L88.44 13.72L88.44 13.09L89.28 12.74L89.28 8.62L89.28 8.62Q89.28 8.27 89.19 8.11L89.19 8.11L89.19 8.11Q89.11 7.94 88.91 7.88L88.91 7.88L88.91 7.88Q88.72 7.83 88.31 7.83L88.31 7.83L88.31 7.83Q87.57 7.83 86.97 7.99L86.97 7.99L86.97 12.74L87.81 13.09L87.81 13.72L83.99 13.72L83.99 13.09L85.08 12.74L85.08 8.05L83.99 7.91L83.99 7.21L86.35 6.69L86.97 6.69L86.97 7.25ZM98.42 13.09L98.42 13.72L95.10 13.72L95.10 13.09L96.28 12.75L96.53 6.08L95.35 5.75L95.35 5.12L98.27 5.12L100.45 11.68L102.61 5.12L105.63 5.12L105.63 5.75L104.44 6.08L104.73 12.75L105.92 13.09L105.92 13.72L101.78 13.72L101.78 13.09L102.96 12.75L102.75 7.63L100.67 13.72L99.64 13.86L97.43 7.67L97.23 12.75L98.42 13.09ZM109.94 13.86L109.94 13.86Q106.58 13.86 106.58 10.30L106.58 10.30L106.58 10.30Q106.58 8.37 107.48 7.53L107.48 7.53L107.48 7.53Q108.37 6.69 109.80 6.69L109.80 6.69L109.80 6.69Q111.27 6.69 111.94 7.34L111.94 7.34L111.94 7.34Q112.62 7.99 112.62 9.38L112.62 9.38L112.62 9.38Q112.62 9.98 112.56 10.30L112.56 10.30L108.61 10.30L108.61 10.64L108.61 10.64Q108.61 11.87 109.07 12.34L109.07 12.34L109.07 12.34Q109.54 12.81 110.50 12.81L110.50 12.81L110.50 12.81Q111.23 12.81 112.43 12.47L112.43 12.47L112.55 13.09L112.55 13.09Q111.52 13.86 109.94 13.86L109.94 13.86ZM108.64 9.55L110.71 9.39L110.71 9.10L110.71 9.10Q110.71 8.40 110.54 8.03L110.54 8.03L110.54 8.03Q110.38 7.66 109.87 7.66L109.87 7.66L109.87 7.66Q109.17 7.66 108.92 8.11L108.92 8.11L108.92 8.11Q108.67 8.57 108.64 9.55L108.64 9.55ZM117.21 7.88L117.21 7.88Q116.66 7.88 116.30 8.11L116.30 8.11L116.30 12.74L117.92 13.02L117.92 13.72L113.32 13.72L113.32 13.02L114.41 12.74L114.41 8.06L113.32 7.91L113.32 7.24L115.67 6.69L116.30 6.69L116.30 7.34L116.30 7.34Q116.76 7.03 117.33 6.84L117.33 6.84L117.33 6.84Q117.91 6.65 118.38 6.65L118.38 6.65L118.38 6.65Q118.71 6.65 118.79 6.66L118.79 6.66L118.52 9.17L117.50 9.17L117.21 7.88ZM121.31 5.80L121.31 5.80Q120.83 5.80 120.47 5.47L120.47 5.47L120.47 5.47Q120.11 5.14 120.11 4.68L120.11 4.68L120.11 4.68Q120.11 4.20 120.47 3.85L120.47 3.85L120.47 3.85Q120.83 3.50 121.31 3.50L121.31 3.50L121.31 3.50Q121.79 3.50 122.12 3.85L122.12 3.85L122.12 3.85Q122.46 4.20 122.46 4.68L122.46 4.68L122.46 4.68Q122.46 5.15 122.12 5.47L122.12 5.47L122.12 5.47Q121.79 5.80 121.31 5.80L121.31 5.80ZM123.35 13.72L119.28 13.72L119.28 13.02L120.37 12.74L120.37 8.06L119.28 7.91L119.28 7.24L121.65 6.69L122.26 6.69L122.26 12.74L123.35 13.02L123.35 13.72Z"></path></g><!----><g data-v-423bf9ae="" id="f13eca9e-9f14-4f62-9026-5aaa7923cba8" transform="matrix(2.8125,0,0,2.8125,0,0)" stroke="none" fill="white"><path d="M16 1c8.271 0 15 6.729 15 15s-6.729 15-15 15S1 24.271 1 16 7.729 1 16 1m0-1C7.163 0 0 7.163 0 16s7.163 16 16 16 16-7.163 16-16S24.837 0 16 0z"></path><path d="M16 7.045L24.955 16 16 24.955 7.045 16 16 7.045m0-1.414L5.631 16 16 26.369 26.369 16 16 5.631z"></path><path d="M16 12.538L19.462 16 16 19.462 12.538 16 16 12.538m0-1.414L11.124 16 16 20.876 20.876 16 16 11.124z"></path></g><!----></svg>