<svg data-v-423bf9ae="" xmlns="http://www.w3.org/2000/svg" viewBox="0 0 426.75456204053035 60" class="font"><!----><!----><!----><g data-v-423bf9ae="" id="1a28b83e-6d2c-4b09-a815-3d97b0d0b4dc" fill="black" transform="matrix(6.08519290965367,0,0,6.08519290965367,-7.24137831147425,-23.853957146942918)"><path d="M5.89 3.98C5.40 3.92 5.18 3.92 4.66 3.92L1.19 3.92L1.19 13.58L4.65 13.58C5.17 13.58 5.39 13.58 5.88 13.52C8.12 13.26 9.93 11.61 9.93 8.62C9.93 5.64 8.13 4.23 5.89 3.98ZM5.35 11.83C5.03 11.86 4.77 11.86 4.37 11.86L3.39 11.86L3.39 5.63L4.38 5.63C4.79 5.63 5.04 5.64 5.36 5.67C6.72 5.82 7.62 6.83 7.62 8.65C7.62 10.51 6.71 11.68 5.35 11.83ZM14.64 5.92C12.17 5.92 10.71 7.52 10.71 9.84C10.71 12.17 12.17 13.78 14.64 13.78C17.11 13.78 18.58 12.17 18.58 9.84C18.58 7.52 17.11 5.92 14.64 5.92ZM14.64 12.26C13.59 12.26 12.96 11.40 12.96 9.84C12.96 8.29 13.59 7.43 14.64 7.43C15.68 7.43 16.31 8.29 16.31 9.84C16.31 11.40 15.68 12.26 14.64 12.26ZM26.95 7.98C26.78 6.68 25.87 5.92 24.30 5.92C23.60 5.92 23.07 6.06 22.57 6.40L21.95 7.29L21.95 6.12L19.75 6.12L19.75 13.58L21.95 13.58L21.95 10.12C21.95 8.22 22.60 7.43 23.46 7.43C24.32 7.43 24.74 7.91 24.79 8.67C24.82 9.04 24.82 9.42 24.82 9.70L24.82 13.58L27.02 13.58L27.02 9.37C27.02 8.76 27.01 8.36 26.95 7.98ZM35.60 9.72C35.60 7.73 34.37 5.92 31.99 5.92C29.62 5.92 28.13 7.63 28.13 9.87C28.13 12.50 29.76 13.78 31.85 13.78C33.67 13.78 35.07 12.87 35.48 11.14L33.31 11.14C33.18 11.84 32.66 12.26 31.89 12.26C31.07 12.26 30.45 11.84 30.32 10.42L35.56 10.42C35.59 10.15 35.60 9.91 35.60 9.72ZM31.89 7.43C32.70 7.43 33.19 7.98 33.32 9.03L30.38 9.03C30.56 7.92 31.11 7.43 31.89 7.43ZM39.45 7.57L41.03 7.57L41.03 6.17L39.45 6.17L39.45 4.30L37.25 4.30L37.25 6.17L36.12 6.17L36.12 7.57L37.25 7.57L37.25 11.00C37.25 11.42 37.25 11.76 37.28 12.14C37.37 13.23 37.90 13.76 39.54 13.76C40.01 13.76 40.45 13.72 40.89 13.65L40.89 12.25C39.77 12.32 39.52 12.15 39.47 11.41C39.45 11.21 39.45 10.96 39.45 10.71ZM44.97 5.92C43.09 5.92 41.86 6.82 41.86 8.27C41.86 9.55 42.77 10.18 44.17 10.53C45.49 10.84 45.96 11.13 45.96 11.66C45.96 12.14 45.54 12.36 45.01 12.36C44.39 12.36 43.89 11.98 43.74 11.28L41.57 11.28C41.76 12.96 43.09 13.78 45.00 13.78C46.75 13.78 48.16 13.05 48.16 11.49C48.16 10.09 47.24 9.49 45.79 9.13C44.46 8.79 44.06 8.51 44.06 8.01C44.06 7.62 44.35 7.32 44.83 7.32C45.37 7.32 45.70 7.67 45.82 8.29L47.99 8.29C47.81 6.93 46.77 5.92 44.97 5.92ZM57.57 10.85L58.45 13.58L60.83 13.58L57.39 3.92L54.67 3.92L51.18 13.58L53.52 13.58L54.42 10.85ZM56 5.82L57.02 9.13L54.96 9.13ZM65.65 5.92C65.21 5.92 64.67 6.12 64.29 6.51L63.73 7.55L63.73 6.12L61.53 6.12L61.53 13.58L63.73 13.58L63.73 10.46C63.73 8.34 64.47 7.64 66.21 7.76L66.21 5.98C66.04 5.95 65.88 5.92 65.65 5.92ZM69.73 7.57L71.32 7.57L71.32 6.17L69.73 6.17L69.73 4.30L67.54 4.30L67.54 6.17L66.40 6.17L66.40 7.57L67.54 7.57L67.54 11.00C67.54 11.42 67.54 11.76 67.56 12.14C67.65 13.23 68.18 13.76 69.82 13.76C70.29 13.76 70.73 13.72 71.18 13.65L71.18 12.25C70.06 12.32 69.80 12.15 69.75 11.41C69.73 11.21 69.73 10.96 69.73 10.71Z"></path></g><!----><!----></svg>