<svg data-v-423bf9ae="" xmlns="http://www.w3.org/2000/svg" viewBox="0 0 352.9411703784447 60" class="font"><!----><!----><!----><g data-v-423bf9ae="" id="ce9d15b1-35f1-4308-80d1-51e9ed9770d8" fill="#aabde6" transform="matrix(6.787330199585475,0,0,6.787330199585475,-0.814478903268764,-31.018099700390913)"><path d="M2.70 5.30L2.70 5.30L2.70 12.46L3.69 12.46L3.69 12.46Q4.57 12.46 5.27 12.19L5.27 12.19L5.27 12.19Q5.97 11.92 6.40 11.46L6.40 11.46L6.40 11.46Q6.83 10.99 7.05 10.39L7.05 10.39L7.05 10.39Q7.27 9.78 7.27 9.08L7.27 9.08L7.27 9.08Q7.27 8.45 7.12 7.89L7.12 7.89L7.12 7.89Q6.98 7.32 6.68 6.84L6.68 6.84L6.68 6.84Q6.38 6.36 5.94 6.01L5.94 6.01L5.94 6.01Q5.50 5.66 4.88 5.47L4.88 5.47L4.88 5.47Q4.27 5.27 3.53 5.27L3.53 5.27L3.53 5.27Q2.98 5.27 2.70 5.30ZM8.72 8.70L8.72 8.70L8.72 8.70Q8.72 9.41 8.51 10.07L8.51 10.07L8.51 10.07Q8.31 10.72 7.89 11.29L7.89 11.29L7.89 11.29Q7.46 11.85 6.85 12.27L6.85 12.27L6.85 12.27Q6.24 12.69 5.38 12.93L5.38 12.93L5.38 12.93Q4.52 13.17 3.50 13.17L3.50 13.17L0.12 13.17L0.21 12.67L1.39 12.29L1.39 5.63L0.21 5.43L0.27 4.91L0.27 4.91Q2.39 4.57 3.79 4.57L3.79 4.57L3.79 4.57Q4.59 4.57 5.27 4.69L5.27 4.69L5.27 4.69Q5.94 4.81 6.44 5.02L6.44 5.02L6.44 5.02Q6.95 5.23 7.34 5.53L7.34 5.53L7.34 5.53Q7.73 5.84 7.99 6.19L7.99 6.19L7.99 6.19Q8.24 6.54 8.41 6.96L8.41 6.96L8.41 6.96Q8.57 7.38 8.64 7.81L8.64 7.81L8.64 7.81Q8.72 8.24 8.72 8.70ZM9.85 11.99L9.85 11.99L9.85 11.99Q10.10 11.77 10.43 11.77L10.43 11.77L10.43 11.77Q10.77 11.77 11.01 12.00L11.01 12.00L11.01 12.00Q11.25 12.23 11.25 12.56L11.25 12.56L11.25 12.56Q11.25 12.90 11.01 13.14L11.01 13.14L11.01 13.14Q10.77 13.38 10.43 13.38L10.43 13.38L10.43 13.38Q10.09 13.38 9.85 13.14L9.85 13.14L9.85 13.14Q9.61 12.89 9.61 12.54L9.61 12.54L9.61 12.54Q9.61 12.22 9.85 11.99ZM17.44 5.30L17.44 5.30L17.44 12.46L18.43 12.46L18.43 12.46Q19.31 12.46 20.01 12.19L20.01 12.19L20.01 12.19Q20.71 11.92 21.14 11.46L21.14 11.46L21.14 11.46Q21.57 10.99 21.79 10.39L21.79 10.39L21.79 10.39Q22.00 9.78 22.00 9.08L22.00 9.08L22.00 9.08Q22.00 8.45 21.86 7.89L21.86 7.89L21.86 7.89Q21.72 7.32 21.42 6.84L21.42 6.84L21.42 6.84Q21.12 6.36 20.68 6.01L20.68 6.01L20.68 6.01Q20.23 5.66 19.62 5.47L19.62 5.47L19.62 5.47Q19.00 5.27 18.27 5.27L18.27 5.27L18.27 5.27Q17.72 5.27 17.44 5.30ZM23.45 8.70L23.45 8.70L23.45 8.70Q23.45 9.41 23.25 10.07L23.25 10.07L23.25 10.07Q23.05 10.72 22.62 11.29L22.62 11.29L22.62 11.29Q22.20 11.85 21.59 12.27L21.59 12.27L21.59 12.27Q20.98 12.69 20.12 12.93L20.12 12.93L20.12 12.93Q19.26 13.17 18.24 13.17L18.24 13.17L14.86 13.17L14.95 12.67L16.13 12.29L16.13 5.63L14.95 5.43L15.00 4.91L15.00 4.91Q17.12 4.57 18.53 4.57L18.53 4.57L18.53 4.57Q19.33 4.57 20.01 4.69L20.01 4.69L20.01 4.69Q20.68 4.81 21.18 5.02L21.18 5.02L21.18 5.02Q21.68 5.23 22.08 5.53L22.08 5.53L22.08 5.53Q22.47 5.84 22.73 6.19L22.73 6.19L22.73 6.19Q22.98 6.54 23.15 6.96L23.15 6.96L23.15 6.96Q23.31 7.38 23.38 7.81L23.38 7.81L23.38 7.81Q23.45 8.24 23.45 8.70ZM25.44 9.78L25.44 9.78L25.44 9.78Q25.44 10.33 25.54 10.83L25.54 10.83L25.54 10.83Q25.64 11.33 25.85 11.75L25.85 11.75L25.85 11.75Q26.05 12.18 26.42 12.43L26.42 12.43L26.42 12.43Q26.78 12.69 27.26 12.69L27.26 12.69L27.26 12.69Q27.72 12.69 28.05 12.39L28.05 12.39L28.05 12.39Q28.38 12.09 28.53 11.66L28.53 11.66L28.53 11.66Q28.68 11.22 28.68 10.72L28.68 10.72L28.68 10.72Q28.68 10.18 28.58 9.67L28.58 9.67L28.58 9.67Q28.48 9.17 28.28 8.72L28.28 8.72L28.28 8.72Q28.08 8.26 27.73 7.99L27.73 7.99L27.73 7.99Q27.37 7.72 26.91 7.72L26.91 7.72L26.91 7.72Q26.41 7.72 26.07 8.02L26.07 8.02L26.07 8.02Q25.73 8.31 25.58 8.76L25.58 8.76L25.58 8.76Q25.44 9.21 25.44 9.78ZM29.89 10.16L29.89 10.16L29.89 10.16Q29.89 11.09 29.51 11.83L29.51 11.83L29.51 11.83Q29.13 12.56 28.48 12.95L28.48 12.95L28.48 12.95Q27.82 13.35 27.03 13.35L27.03 13.35L27.03 13.35Q25.72 13.35 24.97 12.49L24.97 12.49L24.97 12.49Q24.22 11.62 24.22 10.26L24.22 10.26L24.22 10.26Q24.22 9.51 24.47 8.88L24.47 8.88L24.47 8.88Q24.72 8.25 25.14 7.85L25.14 7.85L25.14 7.85Q25.55 7.44 26.09 7.22L26.09 7.22L26.09 7.22Q26.62 7 27.19 7L27.19 7L27.19 7Q28.44 7 29.17 7.86L29.17 7.86L29.17 7.86Q29.89 8.73 29.89 10.16ZM36.57 8.96L36.57 8.96L36.57 12.39L37.56 12.63L37.49 13.17L34.41 13.17L34.49 12.68L35.42 12.39L35.42 9.23L35.42 9.23Q35.42 8.59 35.10 8.28L35.10 8.28L35.10 8.28Q34.77 7.96 34.24 7.96L34.24 7.96L34.24 7.96Q33.87 7.96 33.51 8.12L33.51 8.12L33.51 8.12Q33.15 8.28 32.89 8.56L32.89 8.56L32.89 12.39L33.91 12.63L33.82 13.17L30.65 13.17L30.71 12.68L31.74 12.39L31.74 8.24L30.69 7.89L30.76 7.37L32.79 7.10L32.92 7.23L32.79 8.10L32.86 8.10L32.86 8.10Q33.24 7.64 33.78 7.34L33.78 7.34L33.78 7.34Q34.32 7.03 34.92 7.03L34.92 7.03L34.92 7.03Q35.72 7.03 36.15 7.54L36.15 7.54L36.15 7.54Q36.57 8.04 36.57 8.96ZM42.70 10.09L42.70 10.09L39.39 10.12L39.39 10.12Q39.41 10.55 39.54 10.95L39.54 10.95L39.54 10.95Q39.66 11.35 39.88 11.70L39.88 11.70L39.88 11.70Q40.11 12.05 40.48 12.26L40.48 12.26L40.48 12.26Q40.84 12.48 41.30 12.48L41.30 12.48L41.34 12.48L41.34 12.48Q41.63 12.48 41.79 12.46L41.79 12.46L41.79 12.46Q41.96 12.45 42.24 12.36L42.24 12.36L42.24 12.36Q42.52 12.27 42.85 12.10L42.85 12.10L43.00 12.46L43.00 12.46Q42.59 12.89 42 13.14L42 13.14L42 13.14Q41.41 13.38 40.75 13.38L40.75 13.38L40.75 13.38Q40.26 13.38 39.80 13.17L39.80 13.17L39.80 13.17Q39.35 12.97 38.98 12.59L38.98 12.59L38.98 12.59Q38.61 12.22 38.39 11.61L38.39 11.61L38.39 11.61Q38.17 11.00 38.17 10.25L38.17 10.25L38.17 10.25Q38.17 9.50 38.42 8.88L38.42 8.88L38.42 8.88Q38.68 8.26 39.08 7.87L39.08 7.87L39.08 7.87Q39.49 7.47 39.98 7.25L39.98 7.25L39.98 7.25Q40.48 7.03 40.98 7.03L40.98 7.03L40.98 7.03Q41.77 7.03 42.29 7.59L42.29 7.59L42.29 7.59Q42.81 8.16 42.81 9.19L42.81 9.19L42.81 9.19Q42.81 9.59 42.70 10.09ZM39.40 9.59L39.40 9.59L41.55 9.45L41.55 9.45Q41.60 9.30 41.60 8.98L41.60 8.98L41.60 8.98Q41.60 7.70 40.65 7.70L40.65 7.70L40.65 7.70Q40.19 7.70 39.82 8.18L39.82 8.18L39.82 8.18Q39.45 8.66 39.40 9.59ZM45.26 5.74L45.26 5.74L45.62 5.74L45.62 7.23L47.55 7.23L47.50 7.83L45.62 7.83L45.59 10.94L45.59 10.99L45.59 10.99Q45.59 11.74 45.82 12.04L45.82 12.04L45.82 12.04Q46.06 12.33 46.59 12.33L46.59 12.33L46.59 12.33Q46.82 12.33 47.07 12.24L47.07 12.24L47.07 12.24Q47.31 12.14 47.45 12.05L47.45 12.05L47.58 11.96L47.72 12.33L47.72 12.33Q47.40 12.79 46.92 13.06L46.92 13.06L46.92 13.06Q46.44 13.33 45.88 13.33L45.88 13.33L45.88 13.33Q45.54 13.33 45.29 13.24L45.29 13.24L45.29 13.24Q45.04 13.15 44.83 12.94L44.83 12.94L44.83 12.94Q44.63 12.73 44.53 12.34L44.53 12.34L44.53 12.34Q44.42 11.96 44.42 11.40L44.42 11.40L44.42 11.19L44.44 7.82L43.57 7.82L43.57 7.45L43.57 7.45Q44.43 6.77 45.26 5.74ZM50.96 9.15L50.96 9.15L50.91 8.86L50.91 8.86Q50.66 7.59 49.89 7.59L49.89 7.59L49.89 7.59Q49.54 7.59 49.33 7.83L49.33 7.83L49.33 7.83Q49.12 8.07 49.12 8.41L49.12 8.41L49.12 8.41Q49.12 8.67 49.29 8.90L49.29 8.90L49.29 8.90Q49.45 9.13 49.72 9.30L49.72 9.30L49.72 9.30Q49.98 9.48 50.30 9.66L50.30 9.66L50.30 9.66Q50.62 9.83 50.94 10.03L50.94 10.03L50.94 10.03Q51.26 10.23 51.53 10.45L51.53 10.45L51.53 10.45Q51.79 10.67 51.96 10.99L51.96 10.99L51.96 10.99Q52.12 11.30 52.12 11.67L52.12 11.67L52.12 11.67Q52.12 12.41 51.48 12.91L51.48 12.91L51.48 12.91Q50.84 13.41 50.02 13.41L50.02 13.41L50.02 13.41Q49.14 13.41 48.59 13.05L48.59 13.05L48.59 13.05Q48.04 12.69 48.04 12.21L48.04 12.21L48.04 12.21Q48.04 11.85 48.28 11.60L48.28 11.60L48.28 11.60Q48.53 11.35 48.94 11.31L48.94 11.31L48.94 11.31Q49.15 12.02 49.49 12.38L49.49 12.38L49.49 12.38Q49.83 12.74 50.23 12.74L50.23 12.74L50.23 12.74Q50.63 12.74 50.88 12.56L50.88 12.56L50.88 12.56Q51.13 12.39 51.13 12.04L51.13 12.04L51.13 12.04Q51.13 11.83 50.97 11.63L50.97 11.63L50.97 11.63Q50.80 11.43 50.54 11.27L50.54 11.27L50.54 11.27Q50.29 11.10 49.97 10.94L49.97 10.94L49.97 10.94Q49.66 10.77 49.35 10.57L49.35 10.57L49.35 10.57Q49.03 10.37 48.78 10.15L48.78 10.15L48.78 10.15Q48.52 9.93 48.36 9.60L48.36 9.60L48.36 9.60Q48.19 9.28 48.19 8.91L48.19 8.91L48.19 8.91Q48.19 8.67 48.27 8.41L48.27 8.41L48.27 8.41Q48.35 8.15 48.52 7.90L48.52 7.90L48.52 7.90Q48.69 7.64 48.92 7.45L48.92 7.45L48.92 7.45Q49.16 7.25 49.50 7.13L49.50 7.13L49.50 7.13Q49.84 7.01 50.24 7.01L50.24 7.01L50.24 7.01Q50.95 7.01 51.43 7.31L51.43 7.31L51.43 7.31Q51.91 7.61 51.91 8.16L51.91 8.16L51.91 8.16Q51.91 8.59 51.66 8.85L51.66 8.85L51.66 8.85Q51.41 9.12 50.96 9.15Z"></path></g><!----><!----></svg>